<svg width="20" height="20" viewBox="0 0 20 20" fill="none" xmlns="http://www.w3.org/2000/svg">
<path fill-rule="evenodd" clip-rule="evenodd" d="M1.27412 7.78693L1.23795 7.81406C1.11969 8.28961 1.03924 8.78011 1 9.28219C1.00897 9.28684 1.01803 9.2913 1.02716 9.29557C1.00917 9.52801 1 9.76294 1 10C1 11.8836 1.57864 13.632 2.56785 15.0773L2.55285 15.089C2.82582 15.4857 3.12979 15.8594 3.46124 16.2066L3.47343 16.1971C5.11326 17.9236 7.43092 19 10 19C14.9706 19 19 14.9706 19 10C19 5.75863 16.0661 2.20251 12.1171 1.25041C11.5391 1.1091 10.9391 1.02362 10.3234 1L10.3161 1.00545C10.2112 1.00183 10.1058 1 10 1C5.79307 1 2.26031 3.88645 1.27412 7.78693ZM8.82031 17.4272C8.80559 17.4383 8.79141 17.4498 8.77778 17.4617C8.34109 17.3907 7.91695 17.2823 7.50877 17.1399L8.21107 16.5903C8.52421 16.3452 8.5794 15.8927 8.33433 15.5796C8.08926 15.2664 7.63673 15.2112 7.32358 15.4563L6.28858 16.2663C6.2113 16.3268 6.14974 16.3999 6.10451 16.4804C4.57381 15.5583 3.39648 14.1092 2.82367 12.3843C2.83462 12.3767 2.84542 12.3687 2.85607 12.3604L3.89107 11.5504C4.20421 11.3053 4.2594 10.8528 4.01433 10.5396C3.76926 10.2265 3.31673 10.1713 3.00358 10.4163L2.48426 10.8228C2.45501 10.5525 2.44 10.278 2.44 10C2.44 9.52798 2.48326 9.06606 2.56603 8.618L3.92432 7.59928C4.24244 7.36069 4.30691 6.9094 4.06832 6.59128C3.90725 6.37652 3.64924 6.27736 3.40071 6.30901C4.59024 4.18675 6.77384 2.69687 9.32081 2.4701C9.34128 2.51346 9.36642 2.55542 9.39632 2.59528C9.63491 2.9134 10.0862 2.97787 10.4043 2.73928L10.7539 2.47712C11.5876 2.55966 12.3815 2.77765 13.1133 3.10878C13.1387 3.18571 13.1775 3.25963 13.2303 3.32709C13.4151 3.5632 13.7178 3.65266 13.9898 3.57734C14.5855 3.94817 15.1258 4.39958 15.5956 4.91631C15.5353 4.94091 15.4774 4.97415 15.4236 5.01626L13.3536 6.63626C13.0404 6.88133 12.9852 7.33386 13.2303 7.64701C13.4754 7.96015 13.9279 8.01534 14.2411 7.77027L16.3111 6.15027C16.3577 6.11375 16.3987 6.07262 16.4337 6.02803C17.1478 7.18226 17.56 8.543 17.56 10C17.56 10.3092 17.5414 10.614 17.5054 10.9134L17.4603 10.9472C17.146 11.183 17.0793 11.6263 17.3078 11.9437C16.5468 14.8125 14.1412 17.0119 11.1615 17.4713L11.8443 16.9592C12.1624 16.7207 12.2269 16.2694 11.9883 15.9512C11.7497 15.6331 11.2984 15.5687 10.9803 15.8072L8.82031 17.4272ZM16.3083 12.7112C16.5469 13.0294 16.4824 13.4807 16.1643 13.7192L14.0043 15.3392C13.6862 15.5778 13.2349 15.5134 12.9963 15.1952C12.7577 14.8771 12.8222 14.4258 13.1403 14.1872L15.3003 12.5672C15.6184 12.3287 16.0697 12.3931 16.3083 12.7112ZM12.4743 12.3396C12.7194 12.6527 12.6642 13.1052 12.3511 13.3503L10.2811 14.9703C9.96792 15.2154 9.51539 15.1602 9.27032 14.847C9.02525 14.5339 9.08044 14.0814 9.39358 13.8363L11.4636 12.2163C11.7767 11.9712 12.2293 12.0264 12.4743 12.3396ZM8.03106 12.6303C8.34421 12.3852 8.3994 11.9327 8.15433 11.6195C7.90925 11.3064 7.45673 11.2512 7.14358 11.4963L5.07358 13.1163C4.76043 13.3613 4.70525 13.8139 4.95032 14.127C5.19539 14.4402 5.64792 14.4953 5.96106 14.2503L8.03106 12.6303ZM12.2943 8.37952C12.5394 8.69267 12.4842 9.1452 12.1711 9.39027L10.1011 11.0103C9.78792 11.2553 9.33539 11.2002 9.09032 10.887C8.84525 10.5739 8.90043 10.1213 9.21358 9.87626L11.2836 8.25626C11.5967 8.01119 12.0493 8.06637 12.2943 8.37952ZM8.15433 7.29961C8.3994 7.61275 8.34421 8.06528 8.03107 8.31035L5.96107 9.93035C5.64792 10.1754 5.19539 10.1202 4.95032 9.80709C4.70525 9.49394 4.76044 9.04142 5.07358 8.79635L7.14358 7.17635C7.45673 6.93127 7.90926 6.98646 8.15433 7.29961ZM8.38832 3.35128C8.62691 3.6694 8.56244 4.12069 8.24432 4.35928L6.08432 5.97928C5.7662 6.21787 5.31491 6.1534 5.07632 5.83528C4.83773 5.51716 4.9022 5.06587 5.22032 4.82728L7.38032 3.20728C7.69844 2.96869 8.14973 3.03316 8.38832 3.35128ZM12.1711 5.07035C12.4842 4.82528 12.5394 4.37275 12.2943 4.05961C12.0493 3.74646 11.5967 3.69127 11.2836 3.93634L9.21358 5.55634C8.90044 5.80142 8.84525 6.25394 9.09032 6.56709C9.33539 6.88024 9.78792 6.93542 10.1011 6.69035L12.1711 5.07035ZM16.4911 10.1103C16.8042 9.86523 16.8594 9.4127 16.6143 9.09955C16.3693 8.78641 15.9167 8.73122 15.6036 8.97629L13.5336 10.5963C13.2204 10.8414 13.1652 11.2939 13.4103 11.607C13.6554 11.9202 14.1079 11.9754 14.4211 11.7303L16.4911 10.1103Z" fill="#A865C8"/>
</svg>
