<svg xmlns="http://www.w3.org/2000/svg" width="56" height="56" viewBox="0 0 56 56">
  <path fill-rule="evenodd" d="m17.08 27.5 3.021 5.193.005.008.077.133c3.292 5.672 8.011 13.803 8.069 13.883a.702.702 0 0 0 .89.192c.202-.115 4.228-2.695 7.085-4.529l2.824-1.813c-.3-.176-1.356-.804-2.884-1.713l-4.937-2.94L17.08 27.5Zm25.79 14.164-2.185 1.419c-.03.02-9.647 6.2-10.064 6.436l-.03.017-.032.017c-.447.24-.935.383-1.433.426l.013.021H14.924a3.977 3.977 0 0 1-3.976-3.976V22.925l-.074-.128-.059-.035-.021-.012-.022-.014A3.73 3.73 0 0 1 9 19.576l-.328-.563.344.204a3.728 3.728 0 0 1 .462-1.478l.157-.287.528-.946c.437-.781 1.034-1.84 1.688-2.989 1.3-2.28 2.857-4.978 3.838-6.555l.001-.002.107-.179.009-.012.012-.022.046-.068a3.735 3.735 0 0 1 4.555-1.392l.021.01.021.009c.103.044.184.087.195.093h.001a3.614 3.614 0 0 1 .219.123c.071.04.169.098.289.168l1.019.6 3.556 2.106a35617.374 35617.374 0 0 1 26.452 15.702l.027.015.025.016a3.74 3.74 0 0 1 1.48 4.58l-.074.181-.097.17a969.49 969.49 0 0 1-6.326 10.956l-.012.02-.013.021a3.725 3.725 0 0 1-3.078 1.789 3.758 3.758 0 0 1-.445-.007l-.123-.01-.122-.019a3.024 3.024 0 0 1-.539-.137h-.002l-.024-.01Zm1.146-2.817a.726.726 0 0 0 .623-.349 968.327 968.327 0 0 0 6.306-10.92.74.74 0 0 0-.292-.906c-.252-.15-22.425-13.322-29.348-17.416a825.104 825.104 0 0 0-1.394-.823c-.403-.237-.63-.37-.646-.376a.735.735 0 0 0-.897.273l-.016.028-.02.029-.027.046v.012l-.035.056-.033.045c-1.892 3.042-6.124 10.596-6.18 10.734a.73.73 0 0 0 .29.903l.348.207c3.437 2.046 30.93 18.413 31.209 18.457a.753.753 0 0 0 .112 0ZM21.404 21.386a3.907 3.907 0 0 0 3.903-3.901 3.897 3.897 0 0 0-4.666-3.814 3.9 3.9 0 0 0-2.837 5.316 3.897 3.897 0 0 0 3.6 2.406v-.007ZM22.103 44a1132.856 1132.856 0 0 1-8.155-14.09v16.114c0 .538.438.976.976.976h8.95c-.592-1-1.182-2-1.771-3Z" clip-rule="evenodd"/>
</svg>
