<svg width="24" height="24" viewBox="0 0 24 24" fill="none" xmlns="http://www.w3.org/2000/svg">
<path fill-rule="evenodd" clip-rule="evenodd" d="M19.8581 3L2 20.8581L3.41421 22.2723L5.26909 20.4174C5.27901 20.4278 5.28905 20.4381 5.29923 20.4483C5.6508 20.7999 6.12751 20.9976 6.62471 20.9981H11.8735C12.1845 21.0127 12.4938 20.9453 12.7706 20.8028C12.9699 20.7005 14.6497 19.6236 15.9358 18.7991L16.2422 18.6027C16.8784 18.1946 17.3639 17.8833 17.4597 17.8268C17.5767 17.8538 17.6972 17.8673 17.8196 17.8673C18.1236 17.8653 18.4221 17.7856 18.6866 17.6358C18.9512 17.486 19.1731 17.2712 19.3314 17.0115C20.1592 15.6167 20.9844 14.1903 21.7789 12.7712C21.9895 12.3908 22.0525 11.9461 21.9557 11.5222C21.8589 11.0983 21.6092 10.725 21.2543 10.4738C20.4333 9.98189 19.6103 9.49354 18.7851 9.00873L18.6682 8.93943L17.4633 8.22324L21.2723 4.41421L19.8581 3ZM16.3737 9.31287L12.4489 13.2376C15.1837 14.8604 17.7119 16.3545 17.7638 16.3627C17.7782 16.3638 17.7926 16.3638 17.807 16.3627C17.8551 16.3629 17.9024 16.3506 17.9443 16.3271C17.9863 16.3036 18.0214 16.2697 18.0464 16.2286C18.8635 14.8339 19.6716 13.434 20.4705 12.0288C20.4958 11.9668 20.4983 11.8979 20.4778 11.8342C20.4572 11.7704 20.4148 11.716 20.3581 11.6805C20.3143 11.6543 18.5447 10.6025 16.3737 9.31287ZM11.3628 14.3237L9.74394 15.9426C10.7597 17.6932 11.7314 19.3666 11.7475 19.3891C11.7865 19.4399 11.8423 19.4753 11.9049 19.4888C11.9675 19.5024 12.033 19.4931 12.0894 19.4629C12.21 19.3945 15.8625 17.0475 15.8985 17.0241C15.6823 16.8967 14.4346 16.1535 12.8906 15.2337L11.3628 14.3237ZM8.62974 17.0568L6.33077 19.3557C6.39956 19.4423 6.50574 19.4979 6.62471 19.4979H10.0648C9.58381 18.6858 9.10545 17.872 8.62974 17.0568Z" fill="white"/>
<path d="M6.24948 12.926C6.4528 13.2833 6.65662 13.6404 6.86095 13.9971L7.9712 12.8869C7.71801 12.4505 7.53676 12.1382 7.47146 12.0261L7.46876 12.0297V12.0243L7.45977 12.009L7.45347 11.9991L8.33489 12.5232L9.4199 11.4382C7.66541 10.3949 6.20857 9.52727 5.769 9.26547L5.63399 9.18508C5.57707 9.14996 5.53455 9.09567 5.51409 9.03199C5.49364 8.96831 5.49659 8.89941 5.52241 8.83771C5.54401 8.78462 7.17092 5.87975 7.89799 4.70988L7.91059 4.69278L7.92408 4.67118V4.66668L7.93488 4.64868L7.94208 4.63789L7.94838 4.62709C7.98458 4.57216 8.03882 4.53159 8.10174 4.51237C8.16465 4.49315 8.2323 4.49648 8.29302 4.5218C8.32712 4.53665 10.7072 5.94812 13.3443 7.51377L14.4355 6.42255C11.9976 4.972 9.58277 3.53528 9.28194 3.36003L9.26035 3.34653C8.9508 3.12516 8.58007 3.00367 8.19853 3.00007C7.89118 2.99733 7.58835 3.07431 7.31962 3.22352C7.05088 3.37272 6.82541 3.58904 6.66521 3.85138C5.85265 5.21832 5.0266 6.64466 4.21674 8.0917C4.00845 8.4741 3.94764 8.91963 4.04581 9.34388C4.14399 9.76812 4.39434 10.1416 4.74945 10.3936V16.1086L6.24948 14.6086V12.926Z" fill="white"/>
<path d="M9.11542 9.6508C8.81911 9.65062 8.5295 9.56265 8.28317 9.39796C8.03683 9.23327 7.84482 8.99926 7.73139 8.72551C7.61796 8.45175 7.58819 8.15052 7.64584 7.85986C7.7035 7.56919 7.84599 7.30213 8.05533 7.09241C8.26466 6.88268 8.53144 6.7397 8.82198 6.68152C9.11253 6.62334 9.41379 6.65257 9.68773 6.76552C9.96167 6.87847 10.196 7.07007 10.3611 7.31612C10.5262 7.56217 10.6147 7.85164 10.6154 8.14797C10.615 8.54568 10.4568 8.92697 10.1756 9.2082C9.89437 9.48943 9.51311 9.64763 9.11542 9.6481V9.6508Z" fill="white"/>
</svg>
