<svg width="20" height="21" viewBox="0 0 20 21" fill="none" xmlns="http://www.w3.org/2000/svg">
<path d="M10 18.8571C14.9706 18.8571 19 14.8597 19 9.92857C19 4.99749 14.9706 1 10 1C5.02943 1 1 4.99749 1 9.92857C1 14.8597 5.02943 18.8571 10 18.8571ZM10 17.5816C14.2605 17.5816 17.7143 14.1553 17.7143 9.92857C17.7143 5.70189 14.2605 2.27551 10 2.27551C5.7395 2.27551 2.28571 5.70189 2.28571 9.92857C2.28571 14.1553 5.7395 17.5816 10 17.5816ZM2.74536 16.3792C3.57784 17.5001 4.72472 18.4148 6.07612 19.0354C7.42752 19.6562 8.93811 19.9621 10.4631 19.924C11.9881 19.886 13.4764 19.5052 14.7853 18.818C16.0943 18.131 17.1799 17.1606 17.9383 16L19 16.5332L18.9991 16.5345C18.8158 16.815 18.6157 17.0856 18.4 17.3454C17.6005 18.3084 16.5858 19.1232 15.4139 19.7384C13.9251 20.5199 12.2324 20.9531 10.4979 20.9964C8.76345 21.0397 7.04535 20.6916 5.5083 19.9857C4.29833 19.4299 3.23247 18.6669 2.37177 17.7455C2.13913 17.4964 1.92146 17.2359 1.72 16.9646L2.74536 16.3792ZM19 9.92857C19 14.8597 14.9706 18.8571 10 18.8571C5.02943 18.8571 1 14.8597 1 9.92857C1 4.99749 5.02943 1 10 1C14.9706 1 19 4.99749 19 9.92857ZM17.7143 9.92857C17.7143 14.1553 14.2605 17.5816 10 17.5816C5.7395 17.5816 2.28571 14.1553 2.28571 9.92857C2.28571 5.70189 5.7395 2.27551 10 2.27551C14.2605 2.27551 17.7143 5.70189 17.7143 9.92857ZM6.07612 19.0354C4.72472 18.4148 3.57784 17.5001 2.74536 16.3792L1.72 16.9646C1.92146 17.2359 2.13913 17.4964 2.37177 17.7455C3.23247 18.6669 4.29833 19.4299 5.5083 19.9857C7.04535 20.6916 8.76345 21.0397 10.4979 20.9964C12.2324 20.9531 13.9251 20.5199 15.4139 19.7384C16.5858 19.1232 17.6005 18.3084 18.4 17.3454C18.6157 17.0856 18.8158 16.815 18.9991 16.5345L19 16.5332L17.9383 16C17.1799 17.1606 16.0943 18.131 14.7853 18.818C13.4764 19.5052 11.9881 19.886 10.4631 19.924C8.93811 19.9621 7.42752 19.6562 6.07612 19.0354ZM10 18.8571C14.9706 18.8571 19 14.8597 19 9.92857C19 4.99749 14.9706 1 10 1C5.02943 1 1 4.99749 1 9.92857C1 14.8597 5.02943 18.8571 10 18.8571ZM10 17.5816C14.2605 17.5816 17.7143 14.1553 17.7143 9.92857C17.7143 5.70189 14.2605 2.27551 10 2.27551C5.7395 2.27551 2.28571 5.70189 2.28571 9.92857C2.28571 14.1553 5.7395 17.5816 10 17.5816ZM2.74536 16.3792C3.57784 17.5001 4.72472 18.4148 6.07612 19.0354C7.42752 19.6562 8.93811 19.9621 10.4631 19.924C11.9881 19.886 13.4764 19.5052 14.7853 18.818C16.0943 18.131 17.1799 17.1606 17.9383 16L19 16.5332L18.9991 16.5345C18.8158 16.815 18.6157 17.0856 18.4 17.3454C17.6005 18.3084 16.5858 19.1232 15.4139 19.7384C13.9251 20.5199 12.2324 20.9531 10.4979 20.9964C8.76345 21.0397 7.04535 20.6916 5.5083 19.9857C4.29833 19.4299 3.23247 18.6669 2.37177 17.7455C2.13913 17.4964 1.92146 17.2359 1.72 16.9646L2.74536 16.3792ZM19 9.92857C19 14.8597 14.9706 18.8571 10 18.8571C5.02943 18.8571 1 14.8597 1 9.92857C1 4.99749 5.02943 1 10 1C14.9706 1 19 4.99749 19 9.92857ZM17.7143 9.92857C17.7143 14.1553 14.2605 17.5816 10 17.5816C5.7395 17.5816 2.28571 14.1553 2.28571 9.92857C2.28571 5.70189 5.7395 2.27551 10 2.27551C14.2605 2.27551 17.7143 5.70189 17.7143 9.92857ZM6.07612 19.0354C4.72472 18.4148 3.57784 17.5001 2.74536 16.3792L1.72 16.9646C1.92146 17.2359 2.13913 17.4964 2.37177 17.7455C3.23247 18.6669 4.29833 19.4299 5.5083 19.9857C7.04535 20.6916 8.76345 21.0397 10.4979 20.9964C12.2324 20.9531 13.9251 20.5199 15.4139 19.7384C16.5858 19.1232 17.6005 18.3084 18.4 17.3454C18.6157 17.0856 18.8158 16.815 18.9991 16.5345L19 16.5332L17.9383 16C17.1799 17.1606 16.0943 18.131 14.7853 18.818C13.4764 19.5052 11.9881 19.886 10.4631 19.924C8.93811 19.9621 7.42752 19.6562 6.07612 19.0354ZM10 18.8571C14.9706 18.8571 19 14.8597 19 9.92857C19 4.99749 14.9706 1 10 1C5.02943 1 1 4.99749 1 9.92857C1 14.8597 5.02943 18.8571 10 18.8571ZM17.7143 9.92857C17.7143 14.1553 14.2605 17.5816 10 17.5816C5.7395 17.5816 2.28571 14.1553 2.28571 9.92857C2.28571 5.70189 5.7395 2.27551 10 2.27551C14.2605 2.27551 17.7143 5.70189 17.7143 9.92857ZM2.74536 16.3792C3.57784 17.5001 4.72472 18.4148 6.07612 19.0354C7.42752 19.6562 8.93811 19.9621 10.4631 19.924C11.9881 19.886 13.4764 19.5052 14.7853 18.818C16.0943 18.131 17.1799 17.1606 17.9383 16L19 16.5332L18.9991 16.5345C18.8158 16.815 18.6157 17.0856 18.4 17.3454C17.6005 18.3084 16.5858 19.1232 15.4139 19.7384C13.9251 20.5199 12.2324 20.9531 10.4979 20.9964C8.76345 21.0397 7.04535 20.6916 5.5083 19.9857C4.29833 19.4299 3.23247 18.6669 2.37177 17.7455C2.13913 17.4964 1.92146 17.2359 1.72 16.9646L2.74536 16.3792Z" fill="#A865C8"/>
</svg>
