<svg xmlns="http://www.w3.org/2000/svg" width="56" height="56" viewBox="0 0 56 56">
  <path d="M32.695 16.207a3.298 3.298 0 1 1-6.596 0 3.298 3.298 0 0 1 6.596 0Z"/>
  <path fill-rule="evenodd" d="M8.093 8.093A7.145 7.145 0 0 0 6 13.145V32.93a7.145 7.145 0 0 0 7.145 7.145H32.93a7.145 7.145 0 0 0 7.145-7.145V13.145A7.145 7.145 0 0 0 32.93 6H13.145a7.145 7.145 0 0 0-5.052 2.093Zm2.331 2.331a3.847 3.847 0 0 1 2.72-1.126H32.93a3.847 3.847 0 0 1 3.848 3.847V32.93c0 .508-.1.994-.277 1.436l-10.084-9.431a4.946 4.946 0 0 0-6.758 0l-10.084 9.43a3.846 3.846 0 0 1-.277-1.435V13.145c0-1.02.405-2 1.126-2.72Zm13.74 16.918 9.903 9.264c-.358.112-.74.172-1.137.172H13.145c-.396 0-.778-.062-1.137-.172l9.902-9.264a1.649 1.649 0 0 1 2.253 0Z" clip-rule="evenodd"/>
  <path d="M16.256 42.38v.545A7.075 7.075 0 0 0 23.33 50h15.24C44.883 50 50 44.884 50 38.57V23.331a7.075 7.075 0 0 0-7.075-7.075h-.542v17.416a8.708 8.708 0 0 1-8.709 8.708H16.256Z"/>
</svg>
