<svg width="24" height="24" viewBox="0 0 24 24" fill="none" xmlns="http://www.w3.org/2000/svg">
<path fill-rule="evenodd" clip-rule="evenodd" d="M19.8581 3L2 20.8581L3.41421 22.2723L6.96795 18.7185V18.8249C6.96795 19.2091 7.04362 19.5895 7.19063 19.9444C7.33764 20.2993 7.55311 20.6218 7.82475 20.8934C8.09639 21.1651 8.41888 21.3805 8.77379 21.5275C9.12871 21.6746 9.5091 21.7502 9.89326 21.7502H16.1939C18.8042 21.7502 20.9194 19.635 20.9194 17.0247V10.7241C20.9194 9.94825 20.6112 9.20418 20.0626 8.65558C19.514 8.10698 18.7699 7.79878 17.9941 7.79878H17.8877L21.2723 4.41421L19.8581 3ZM17.77 7.91653L16.8699 8.81662V14.7745C16.8699 15.5503 16.5617 16.2944 16.0131 16.843C15.4645 17.3916 14.7204 17.6998 13.9446 17.6998H7.98669L7.0866 18.5999H14.1696C15.1245 18.5999 16.0402 18.2206 16.7154 17.5454C17.3906 16.8702 17.77 15.9544 17.77 14.9995V7.91653ZM9.33683 16.3497H13.9446C14.1066 16.3497 14.2632 16.3253 14.4099 16.2794L11.825 13.8615L9.33683 16.3497ZM12.7802 12.9062L15.4063 15.3622C15.4792 15.1813 15.5197 14.9824 15.5197 14.7745V10.1668L12.7802 12.9062Z" fill="white"/>
<path d="M11.9289 8.92841L13.4987 7.35856C13.4648 7.31232 13.4273 7.26847 13.3863 7.22746C13.1757 7.01679 12.8899 6.89844 12.592 6.89844C12.2941 6.89844 12.0084 7.01679 11.7978 7.22746C11.5871 7.43812 11.4688 7.72384 11.4688 8.02176C11.4688 8.31969 11.5871 8.60541 11.7978 8.81607C11.8388 8.85708 11.8827 8.89459 11.9289 8.92841Z" fill="white"/>
<path d="M15.058 5.55955C15.0982 5.5998 15.1361 5.64201 15.1714 5.68594L16.1291 4.72825C16.0916 4.68612 16.0528 4.64496 16.0127 4.60485C15.4641 4.05625 14.72 3.74805 13.9442 3.74805H5.84327C5.06743 3.74805 4.32337 4.05625 3.77477 4.60485C3.22616 5.15346 2.91797 5.89752 2.91797 6.67336V14.7743C2.91797 15.5501 3.22616 16.2942 3.77477 16.8428C3.81487 16.8829 3.85603 16.9217 3.89816 16.9592L9.90291 10.9545L9.8937 10.9544C9.37997 10.9544 8.88544 11.1497 8.51025 11.5006L4.38152 15.362C4.30861 15.1802 4.26811 14.9822 4.26811 14.7743V6.67336C4.26811 6.2556 4.43406 5.85495 4.72946 5.55955C5.02486 5.26415 5.42551 5.09819 5.84327 5.09819H13.9442C14.3619 5.09819 14.7626 5.26415 15.058 5.55955Z" fill="white"/>
</svg>
