<svg xmlns="http://www.w3.org/2000/svg" width="56" height="56" viewBox="0 0 56 56">
  <path fill-rule="evenodd" d="M33.974 43.64c-1.226-.081-2.137-.444-2.776-1.042-.636-.626-1.404-2.048-2.288-4.372L17.813 9h-1.37L5.226 37.916v.002c-.962 2.512-1.811 4.098-2.533 4.846l-.003.003c-.131.14-.377.298-.78.456-.398.155-.917.297-1.564.423L0 43.714v1.799h10.781V43.67l-.39-.03c-.748-.06-1.352-.151-1.82-.272-.47-.121-.765-.263-.929-.4-.372-.34-.517-.688-.517-1.049 0-.565.232-1.498.758-2.845l2.033-5.212h11.67l1.801 4.721c.621 1.625.899 2.737.899 3.387 0 .406-.153.757-.517 1.075l-.005.005c-.15.136-.403.27-.795.377-.388.106-.885.178-1.498.212l-.398.021v1.852h13.295v-1.847l-.394-.026ZM11 31.04l4.853-12.418 4.73 12.419H11Zm44.284 8.86c-.935 1.03-1.527 1.612-1.805 1.804a.794.794 0 0 1-.436.113.507.507 0 0 1-.352-.142c-.061-.066-.163-.266-.236-.73-.07-.467-.11-1.798-.11-4.054v-7.98c0-1.146-.036-2.108-.108-2.882-.07-.765-.18-1.38-.344-1.812l-.001-.002c-.47-1.22-1.209-2.134-2.217-2.718-1.29-.747-2.915-1.105-4.852-1.105-2.527 0-4.55.63-6.017 1.952-1.43 1.29-2.202 2.76-2.202 4.412 0 .848.197 1.576.64 2.128l.006.007c.456.544 1.043.816 1.729.816.69 0 1.28-.255 1.726-.787.467-.539.672-1.274.672-2.138v-.008l-.046-1.488c.002-.597.23-1.143.745-1.65l.004-.004c.479-.485 1.144-.75 2.045-.75 1.197 0 2.044.4 2.613 1.144l.003.004c.577.736.923 2.193.923 4.522v.6c-3.525 1.426-6.086 2.65-7.664 3.672-1.6 1.048-2.766 2.19-3.45 3.442-.513.922-.76 2-.76 3.217 0 1.907.5 3.49 1.533 4.703l.003.003C38.37 45.4 39.702 46 41.284 46a6.206 6.206 0 0 0 2.854-.684l.003-.002c.318-.165.83-.53 1.513-1.067a77.79 77.79 0 0 0 2.053-1.682c.09 1.01.327 1.821.756 2.375.538.695 1.265 1.034 2.135 1.034 1.793 0 3.564-1.444 5.319-4.034l.083-.123v-2.706l-.716.789Zm-11.537-6.274.003-.002c.598-.375 1.894-1.007 3.914-1.901v8.05c-1.84 1.608-3.242 2.327-4.238 2.327-.734 0-1.395-.333-1.994-1.054-.59-.726-.893-1.638-.893-2.77 0-.876.235-1.68.715-2.427.477-.742 1.294-1.488 2.493-2.223Zm3.917-2.4.244-.108.175-.077-.42.184Z" clip-rule="evenodd"/>
</svg>
