<svg width="24" height="24" viewBox="0 0 24 24" fill="none" xmlns="http://www.w3.org/2000/svg">
<path fill-rule="evenodd" clip-rule="evenodd" d="M19.8581 3L2 20.8581L3.41421 22.2723L9.93719 15.7493H13.9162L13.9194 14.8556L13.6325 14.8379C13.3608 14.8385 13.0966 14.7464 12.8804 14.576C12.5991 14.245 12.382 13.8612 12.2407 13.4457L15.1546 10.5319C15.1537 10.5458 15.153 10.5598 15.1524 10.5737C15.142 10.816 15.2221 11.0533 15.3766 11.2376C15.4547 11.3193 15.548 11.3845 15.6509 11.4293C15.7538 11.4741 15.8644 11.4977 15.9762 11.4987C16.0881 11.4998 16.1991 11.4782 16.3028 11.4353C16.4064 11.3924 16.5008 11.329 16.5804 11.2487C16.7408 11.0621 16.8231 10.8187 16.8097 10.5708L16.7965 10.1926C16.7979 10.1314 16.8129 10.0714 16.8404 10.017C16.8679 9.96263 16.9072 9.91538 16.9553 9.87887C17.0864 9.76879 17.2538 9.71431 17.4231 9.72666C17.537 9.71694 17.6515 9.73358 17.7582 9.77534C17.8649 9.8171 17.961 9.8829 18.0394 9.96785C18.2265 10.291 18.3037 10.6683 18.2589 11.0409V11.0842C17.5438 11.3351 16.8503 11.646 16.1854 12.0139C15.7721 12.2404 15.4196 12.567 15.1587 12.9651C14.9963 13.244 14.9139 13.5639 14.9208 13.8883C14.9018 14.3809 15.0733 14.8614 15.3984 15.226C15.5551 15.3965 15.7454 15.5312 15.9567 15.6213C16.168 15.7114 16.3956 15.7548 16.6246 15.7487C16.9243 15.7495 17.2205 15.6831 17.4925 15.5544C17.7825 15.3892 18.0574 15.1978 18.3139 14.9824C18.3485 15.1412 18.4187 15.2895 18.5192 15.4156C18.608 15.5213 18.7188 15.6053 18.8434 15.6617C18.9681 15.7182 19.1035 15.7455 19.2398 15.7417C19.7826 15.7417 20.3129 15.3764 20.8621 14.6253L20.9194 14.5504V13.3989L20.4499 13.8836C20.1849 14.1547 20.0587 14.2644 19.9937 14.3209C19.9771 14.3353 19.9645 14.3462 19.9546 14.3555C19.9383 14.3183 19.9279 14.2788 19.9237 14.2384C19.894 13.898 19.8842 13.5561 19.8944 13.2145V11.1363C19.9215 10.702 19.8742 10.2661 19.7545 9.84843C19.6216 9.5099 19.3751 9.23064 19.0592 9.06047C18.6111 8.84149 18.1179 8.73626 17.6214 8.75371C17.3676 8.73924 17.115 8.76074 16.8703 8.81615L21.2723 4.41422L19.8581 3ZM18.5352 14.0224V11.6895C18.1002 11.8553 17.6742 12.0448 17.2592 12.2574C16.9717 12.4047 16.7193 12.6145 16.5196 12.872C16.3744 13.0761 16.2965 13.3222 16.2972 13.5745C16.2874 13.8673 16.3882 14.1528 16.5787 14.3719C16.6575 14.4698 16.7563 14.5491 16.8682 14.6041C16.9801 14.6591 17.1023 14.6885 17.2265 14.6903C17.7207 14.6139 18.1787 14.3801 18.5352 14.0224Z" fill="white"/>
<path d="M10.856 10.0023L8.73434 4.74902H8.0739L4.55049 13.2841C4.38683 13.7798 4.13376 14.2388 3.80472 14.6367C3.61348 14.7582 3.39657 14.8297 3.17272 14.8449L2.91992 14.8908V15.7484H5.10991L6.03386 14.8245C5.87601 14.8004 5.72206 14.7514 5.57749 14.6786C5.48016 14.5988 5.48016 14.5444 5.48016 14.5208C5.50832 14.2565 5.58308 13.9997 5.70073 13.7633L6.28344 12.3563H8.50202L9.37215 11.4862H6.30556L8.00817 7.39017L9.58255 11.2758L10.856 10.0023Z" fill="white"/>
</svg>
