<svg xmlns="http://www.w3.org/2000/svg" width="56" height="56" viewBox="0 0 56 56">
  <path fill-rule="evenodd" d="M9.098 9.098A3.75 3.75 0 0 0 8 11.75v32.5A3.75 3.75 0 0 0 11.75 48h32.5A3.75 3.75 0 0 0 48 44.25v-32.5A3.75 3.75 0 0 0 44.25 8h-32.5a3.75 3.75 0 0 0-2.652 1.098Zm2.565 2.565c.21-.211.497-.33.795-.33h7.875v9h-9v-7.875c0-.298.119-.584.33-.795Zm20.893 8.67h-9v-9h9v9Zm-9 12.223h9v-9h-9v9Zm9 12.222h-9v-9h9v9ZM11.333 32.556h9v-9h-9v9Zm9 12.222h-8a1 1 0 0 1-1-1v-8h9v9Zm15.445-24.445h9v-8a1 1 0 0 0-1-1h-8v9Zm9 12.223h-9v-9h9v9Zm-9 12.222h8a1 1 0 0 0 1-1v-8h-9v9Z" clip-rule="evenodd"/>
</svg>
