<svg width="24" height="24" viewBox="0 0 24 24" fill="none" xmlns="http://www.w3.org/2000/svg">
<path fill-rule="evenodd" clip-rule="evenodd" d="M19.8581 2L2 19.8581L3.41421 21.2723L5.01811 19.6684C5.17596 19.7209 5.34454 19.7493 5.51943 19.7493H18.3194C19.1994 19.7493 19.9194 19.0293 19.9194 18.1493V5.34933C19.9194 5.17444 19.891 5.00586 19.8385 4.84801L21.2723 3.41421L19.8581 2ZM18.3194 6.36709L16.1372 8.54933H18.3194V6.36709ZM13.5194 11.1671L11.3372 13.3493H13.5194V11.1671ZM8.71943 15.9671L6.53719 18.1493H8.71943V15.9671ZM13.5194 18.1493H10.3194V14.9493H13.5194V18.1493ZM18.3194 18.1493H15.1194V14.9493H18.3194V18.1493ZM18.3194 13.3493H15.1194V10.1493H18.3194V13.3493Z" fill="white"/>
<path fill-rule="evenodd" clip-rule="evenodd" d="M8.71992 10.1491V11.1384L11.3093 8.54902H10.3199V5.34902H13.5199V6.33835L16.1092 3.74902H5.51992C4.63992 3.74902 3.91992 4.46902 3.91992 5.34902V15.9384L6.50925 13.3491H5.51992V10.1491H8.71992ZM8.71992 8.54902H5.51992V5.34902H8.71992V8.54902Z" fill="white"/>
</svg>
