<svg width="20" height="20" viewBox="0 0 20 20" fill="none" xmlns="http://www.w3.org/2000/svg">
<path d="M13.5 8C14.3284 8 15 7.32843 15 6.5C15 5.67157 14.3284 5 13.5 5C12.6716 5 12 5.67157 12 6.5C12 7.32843 12.6716 8 13.5 8Z" fill="black"/>
<path fill-rule="evenodd" clip-rule="evenodd" d="M3 1C1.89543 1 1 1.89543 1 3V17C1 18.1046 1.89543 19 3 19H17.5C18.3284 19 19 18.3284 19 17.5V3C19 1.89543 18.1046 1 17 1H3ZM11.522 12.9881L6.02199 6.98806L2.4 10.6101V3C2.4 2.66863 2.66863 2.4 3 2.4H17C17.3314 2.4 17.6 2.66863 17.6 3V15.1101L15.4092 12.9192C14.3548 11.8648 12.6452 11.8648 11.5908 12.9192L11.522 12.9881Z" fill="black"/>
</svg>
