<svg width="20" height="20" viewBox="0 0 19 19" fill="none" xmlns="http://www.w3.org/2000/svg">
<path d="M10 19C14.9706 19 19 14.9705 19 10C19 5.02947 14.9706 1 10 1C5.02943 1 1 5.02947 1 10C1 14.9705 5.02943 19 10 19ZM17.7143 10C17.7143 14.2605 14.2605 17.7143 10 17.7143C5.7395 17.7143 2.28571 14.2605 2.28571 10C2.28571 5.7395 5.7395 2.28571 10 2.28571C14.2605 2.28571 17.7143 5.7395 17.7143 10ZM7.38687 14.586C6.59573 14.1352 5.93467 13.4874 5.46792 12.7055L4.20424 13.4599C4.45741 13.884 4.75528 14.2772 5.09159 14.6335C5.54819 15.1172 6.07564 15.5327 6.65825 15.8647C7.66999 16.4412 8.81365 16.7461 9.97809 16.7499C11.1425 16.7537 12.2881 16.4562 13.3036 15.8863C13.8884 15.5581 14.4185 15.146 14.8782 14.6653C15.2168 14.3112 15.5173 13.9199 15.7732 13.4975L14.5144 12.7349C14.0426 13.5137 13.3774 14.1572 12.5833 14.6028C11.7893 15.0485 10.8934 15.2811 9.98287 15.2782C9.07231 15.2752 8.17801 15.0368 7.38687 14.586Z" fill="#A865C8"/>
</svg>
