<svg width="20" height="20" viewBox="0 0 21 21" fill="none"
  xmlns="http://www.w3.org/2000/svg">
  <path fill-rule="evenodd" clip-rule="evenodd" d="M10 0C4.47715 0 0 4.47719 0 10C0 15.5228 4.47715 20 10 20C15.5229 20 20 15.5228 20 10C20 4.47719 15.5229 0 10 0ZM1.42857 10C1.42857 5.26611 5.26611 1.42857 10 1.42857C14.7339 1.42857 18.5714 5.26611 18.5714 10C18.5714 14.7339 14.7339 18.5714 10 18.5714C5.26611 18.5714 1.42857 14.7339 1.42857 10ZM12.9035 4.90449C13.7825 5.40537 14.517 6.12514 15.0356 6.99385L16.4397 6.15562C16.1584 5.68443 15.8275 5.24751 15.4538 4.85167C14.9465 4.31424 14.3604 3.85255 13.7131 3.48369C12.5889 2.84315 11.3182 2.50431 10.0243 2.50011C8.73052 2.49591 7.45761 2.82649 6.32933 3.45972C5.6796 3.82437 5.09056 4.28224 4.57974 4.81636C4.2035 5.20976 3.86971 5.64453 3.58536 6.11388L4.98397 6.96121C5.50821 6.09589 6.24738 5.3809 7.12966 4.88574C8.01194 4.39058 9.00731 4.13208 10.019 4.13536C11.0308 4.13865 12.0244 4.40361 12.9035 4.90449Z" fill="#A865C8"/>
</svg>
  