<svg width="20" height="20" viewBox="0 0 19 19" fill="none" xmlns="http://www.w3.org/2000/svg">
<path d="M1 8.92254C1.10738 8.03025 1.34645 7.17805 1.6974 6.38557L2.19988 6.01197C2.55971 5.74443 3.07019 5.81673 3.34006 6.17345C3.60993 6.53017 3.53701 7.03623 3.17718 7.30377L1 8.92254ZM1.38696 12.8103C1.22776 12.3297 1.10828 11.8312 1.03237 11.3187L2.1357 10.4627C2.48991 10.1879 3.00178 10.2498 3.27899 10.6009C3.5562 10.9521 3.49377 11.4595 3.13956 11.7343L1.96884 12.6426C1.79704 12.7759 1.58817 12.83 1.38696 12.8103ZM3.41568 16.1815C3.10527 15.856 2.8191 15.5075 2.56005 15.1389C2.82723 15.1138 3.10131 15.22 3.27898 15.4451C3.44986 15.6615 3.49169 15.9374 3.41568 16.1815ZM6.70893 18.3849C6.31183 18.231 5.92834 18.0501 5.56075 17.8446C5.48992 17.5475 5.59302 17.2231 5.85147 17.0226L7.0222 16.1143C7.37641 15.8395 7.88828 15.9013 8.16549 16.2525C8.4427 16.6036 8.38027 17.1111 8.02606 17.3859L6.85534 18.2942C6.80894 18.3302 6.75985 18.3604 6.70893 18.3849ZM12.2762 18.7184C11.553 18.9022 10.7951 19 10.0141 19C9.82847 19 9.64412 18.9945 9.46124 18.9836L11.0478 17.704C11.3967 17.4226 11.9097 17.4749 12.1935 17.8208C12.4088 18.0831 12.4305 18.439 12.2762 18.7184ZM19 11.2904C18.895 12.0155 18.7028 12.7128 18.4342 13.3713C18.2834 13.3265 18.1441 13.2379 18.0373 13.1077C17.7534 12.7618 17.8061 12.2533 18.155 11.9719L19 11.2904ZM18.6218 7.13152C18.7637 7.55025 18.8754 7.98275 18.9543 8.42645C18.8151 8.37669 18.6879 8.28874 18.59 8.1647C18.3438 7.85277 18.3655 7.41749 18.6218 7.13152ZM17.062 4.32652C17.2101 4.50717 17.3513 4.69364 17.4852 4.88551C17.543 5.17467 17.4384 5.48482 17.1882 5.67892L14.8468 7.49551C14.4926 7.77032 13.9807 7.70844 13.7035 7.35729C13.4263 7.00614 13.4887 6.4987 13.8429 6.22389L16.1844 4.4073C16.4437 4.20609 16.7876 4.18537 17.062 4.32652ZM13.5856 1.72318C14.0956 1.93974 14.5815 2.20127 15.0384 2.50274L14.8468 2.65136C14.4926 2.92617 13.9807 2.86429 13.7035 2.51314C13.52 2.2807 13.4853 1.97978 13.5856 1.72318ZM11.4952 1.11918L10.5069 1.85399C10.1471 2.12153 9.63662 2.04924 9.36674 1.69252C9.21848 1.49655 9.17368 1.2555 9.22307 1.03369C9.48376 1.01139 9.7476 1 10.0141 1C10.5185 1 11.0132 1.04077 11.4952 1.11918ZM12.6448 8.1787C12.922 8.52985 12.8596 9.03729 12.5054 9.31211L10.1639 11.1287C9.80969 11.4035 9.29782 11.3416 9.02061 10.9905C8.7434 10.6393 8.80583 10.1319 9.16004 9.85707L11.5015 8.04048C11.8557 7.76567 12.3676 7.82755 12.6448 8.1787ZM7.82246 12.9453C8.17667 12.6705 8.23909 12.163 7.96188 11.8119C7.68467 11.4607 7.17281 11.3989 6.81859 11.6737L4.47714 13.4903C4.12293 13.7651 4.06051 14.2725 4.33772 14.6237C4.61493 14.9748 5.1268 15.0367 5.48101 14.7619L7.82246 12.9453ZM17.3919 10.1195C17.7461 9.8447 17.8085 9.33726 17.5313 8.98611C17.2541 8.63496 16.7422 8.57308 16.388 8.84789L14.0465 10.6645C13.6923 10.9393 13.6299 11.4467 13.9071 11.7979C14.1843 12.149 14.6962 12.2109 15.0504 11.9361L17.3919 10.1195ZM12.8484 12.6193C13.1256 12.9704 13.0632 13.4779 12.709 13.7527L10.3675 15.5693C10.0133 15.8441 9.50143 15.7822 9.22422 15.4311C8.94701 15.0799 9.00943 14.5725 9.36365 14.2977L11.7051 12.4811C12.0593 12.2063 12.5712 12.2682 12.8484 12.6193ZM12.5054 4.46795C12.8596 4.19314 12.922 3.6857 12.6448 3.33455C12.3676 2.9834 11.8557 2.92152 11.5015 3.19633L9.16004 5.01292C8.80583 5.28773 8.74341 5.79517 9.02062 6.14632C9.29783 6.49747 9.80969 6.55936 10.1639 6.28454L12.5054 4.46795ZM7.96188 6.96773C8.23909 7.31888 8.17667 7.82632 7.82246 8.10114L5.48101 9.91773C5.1268 10.1925 4.61493 10.1307 4.33772 9.77951C4.06051 9.42836 4.12293 8.92092 4.47715 8.64611L6.81859 6.82951C7.17281 6.5547 7.68467 6.61658 7.96188 6.96773ZM8.22656 2.54026C8.49643 2.89698 8.42351 3.40305 8.06368 3.67059L5.62043 5.48718C5.26059 5.75472 4.75012 5.68243 4.48024 5.32571C4.21037 4.96899 4.28329 4.46292 4.64313 4.19538L7.08638 2.37879C7.44621 2.11125 7.95669 2.18354 8.22656 2.54026ZM16.8139 15.1351C17.1628 14.8537 17.2155 14.3452 16.9317 13.9993C16.6478 13.6534 16.1349 13.6012 15.786 13.8826L13.4169 15.7933C13.068 16.0747 13.0152 16.5832 13.2991 16.9291C13.583 17.275 14.0959 17.3273 14.4448 17.0459L16.8139 15.1351Z" fill="#A865C8"/>
</svg>
