<svg width="20" height="20" viewBox="0 0 19 19" fill="none" xmlns="http://www.w3.org/2000/svg">
<rect x="2" y="5.61292" width="3.61291" height="3.61292" transform="rotate(-90 2 5.61292)" fill="#A865C8"/>
<rect x="2" y="11.8065" width="3.61291" height="3.61292" transform="rotate(-90 2 11.8065)" fill="#A865C8"/>
<rect x="2" y="18" width="3.61291" height="3.61292" transform="rotate(-90 2 18)" fill="#A865C8"/>
<rect x="8.19363" y="5.61292" width="3.61291" height="3.61292" transform="rotate(-90 8.19363 5.61292)" fill="#A865C8"/>
<rect x="8.19363" y="11.8065" width="3.61291" height="3.61292" transform="rotate(-90 8.19363 11.8065)" fill="#A865C8"/>
<rect x="8.19363" y="18" width="3.61291" height="3.61292" transform="rotate(-90 8.19363 18)" fill="#A865C8"/>
<rect x="14.3871" y="5.61292" width="3.61291" height="3.61292" transform="rotate(-90 14.3871 5.61292)" fill="#A865C8"/>
<rect x="14.3871" y="11.8065" width="3.61291" height="3.61292" transform="rotate(-90 14.3871 11.8065)" fill="#A865C8"/>
<rect x="14.3871" y="18" width="3.61291" height="3.61292" transform="rotate(-90 14.3871 18)" fill="#A865C8"/>
</svg>
