<svg width="132" height="112" viewBox="0 0 132 112" fill="none" xmlns="http://www.w3.org/2000/svg">
<path fill-rule="evenodd" clip-rule="evenodd" d="M27.8443 62.4755L33.4675 50.9455H51.5349L53.3441 62.4755H64.6882L55.7401 11.9115H42.0978L16.5002 62.4755H27.8443ZM37.5259 42.6005L46.8653 23.4662H47.2565L50.2392 42.6005H37.5259Z" fill="#18A0FB"/>
<path d="M83.3425 77.4866C84.8702 77.4866 86.3524 77.3862 87.7754 77.1856V69.575C86.8258 69.8176 85.8034 69.9317 84.736 69.9317C80.1153 69.9317 78.2327 67.9318 77.6949 65.611L67.8177 66.9196C68.1599 72.8944 73.1719 77.4866 83.3425 77.4866Z" fill="#18A0FB"/>
<path fill-rule="evenodd" clip-rule="evenodd" d="M96.393 52.0704H105.776L110.309 24.5525H99.9675L98.9406 30.9224H98.525C97.6204 27.8362 95.2244 24.0587 88.9412 24.0587C80.702 24.0587 72.634 30.5273 70.5314 43.4399C68.4778 56.0562 74.2965 61.9323 82.7557 61.9323C83.3912 61.9323 84.0028 61.8978 84.5906 61.8325V59.1648C84.5906 57.911 85.5971 56.8946 86.8387 56.8946H90.9998C91.1456 55.6835 91.6883 54.5489 92.5514 53.6773C93.5702 52.6484 94.9521 52.0704 96.393 52.0704ZM87.2542 54.0317C82.12 54.0317 80.1397 49.9332 81.191 43.3905C82.2178 36.9466 85.5917 32.4284 90.7748 32.4284C95.8112 32.4284 98.036 36.7491 96.9603 43.3905C95.8845 50.0814 92.2417 54.0317 87.2542 54.0317Z" fill="#18A0FB"/>
<path d="M102.762 80.0692H105.947V65.5966H102.762V80.0692Z" fill="#18A0FB"/>
<path d="M96.3929 80.0692H99.5777L99.5777 65.5971L96.3929 65.5966V80.0692Z" fill="#18A0FB"/>
<path fill-rule="evenodd" clip-rule="evenodd" d="M93.2082 86.5015H109.132C109.977 86.5015 110.787 86.1627 111.384 85.5595C111.981 84.9564 112.317 84.1383 112.317 83.2854V62.3804H115.502V59.1643H109.132V57.5562C109.132 56.7032 108.796 55.8852 108.199 55.282C107.602 54.6789 106.792 54.3401 105.947 54.3401H96.3929C95.5483 54.3401 94.7382 54.6789 94.141 55.282C93.5437 55.8852 93.2082 56.7032 93.2082 57.5562V59.1643H86.8386V62.3804H90.0234V83.2854C90.0234 84.1383 90.3589 84.9564 90.9562 85.5595C91.5535 86.1627 92.3635 86.5015 93.2082 86.5015ZM93.2082 62.3804V64.8398C93.2082 64.8398 93.2082 64.8398 93.2082 64.8398V83.2854H109.132V62.3804H93.2082ZM96.3929 59.1643H105.947V57.5562L96.393 57.5567L96.3929 59.1643Z" fill="#18A0FB"/>
</svg>
