<svg xmlns="http://www.w3.org/2000/svg" width="134" height="46" viewBox="0 0 134 46">
  <path d="M11.077 10.24v2.32H.49v-2.32h10.587Zm10.321 26.015L14.036 9.181h2.978l7.363 27.074h-2.979Zm18.05-3.401v2.805H24.934v-2.805h14.514Zm3.182-9.385c0-2.768.368-5.315 1.104-7.641a22.68 22.68 0 0 1 3.224-6.438h3.057c-.55.73-1.064 1.624-1.54 2.684a25.247 25.247 0 0 0-1.25 3.489 31.033 31.033 0 0 0-.836 3.92 27.01 27.01 0 0 0-.301 3.986c0 1.752.175 3.526.524 5.322.35 1.796.822 3.463 1.417 5.002.595 1.538 1.257 2.793 1.986 3.765h-3.057a22.68 22.68 0 0 1-3.224-6.437c-.736-2.326-1.104-4.877-1.104-7.652ZM65.582 9.503l-2.387.777c.785 1.648 2.544 6.437 3.078 8.209l2.45-.84c-.534-1.74-2.45-6.685-3.14-8.146Zm13.98 1.99-2.922-.84c-.597 4.695-2.545 9.67-5.026 12.81-3.173 3.98-7.854 6.966-12.315 8.272l2.137 2.145c4.46-1.554 9.078-4.757 12.314-8.986 2.607-3.358 4.272-7.773 5.246-11.66.125-.466.345-1.244.565-1.741Zm-22.744-.125-2.45.871c.722 1.368 2.89 6.623 3.486 8.55l2.514-.9c-.754-2.053-2.702-6.78-3.55-8.52ZM91.36 23.469c0 2.775-.37 5.325-1.105 7.652a22.682 22.682 0 0 1-3.224 6.437h-3.057c.55-.729 1.064-1.623 1.54-2.683.476-1.06.892-2.22 1.25-3.478.356-1.266.635-2.577.836-3.931.2-1.355.3-2.687.3-3.997a27.76 27.76 0 0 0-.523-5.311 29.448 29.448 0 0 0-1.417-5.002c-.595-1.539-1.257-2.794-1.986-3.766h3.057a22.682 22.682 0 0 1 3.224 6.438c.736 2.326 1.104 4.873 1.104 7.64Zm17.694 9.385v2.805H94.541v-2.805h14.513ZM119.967 9.18l-7.363 27.075h-2.978l7.362-27.074h2.979Zm13.543 1.06v2.32h-10.587v-2.32h10.587Z"/>
</svg>
