<svg xmlns="http://www.w3.org/2000/svg" class="infoIcon" width="28" height="28" viewBox="0 0 22 22">
  <path fill-rule="evenodd" d="M18.203 2.4 1.833 18.77l1.297 1.296 1.7-1.7.028.028c.322.323.759.504 1.215.504h4.811a1.63 1.63 0 0 0 .822-.179c.183-.094 1.723-1.08 2.902-1.837l.28-.18c.584-.374 1.029-.659 1.117-.71.107.024.217.036.33.036a1.635 1.635 0 0 0 1.385-.784 178.75 178.75 0 0 0 2.244-3.887 1.62 1.62 0 0 0-.48-2.106c-.754-.45-1.508-.899-2.264-1.343l-.107-.064-1.105-.656L19.5 3.696 18.203 2.4ZM15.01 8.187l-3.598 3.598c2.507 1.487 4.825 2.857 4.873 2.864a.262.262 0 0 0 .04 0 .255.255 0 0 0 .218-.123c.75-1.278 1.49-2.562 2.223-3.85a.26.26 0 0 0-.103-.319l-3.653-2.17Zm-4.593 4.593-1.484 1.484a978.416 978.416 0 0 0 1.836 3.16.248.248 0 0 0 .314.067 801.73 801.73 0 0 0 3.492-2.236c-.199-.116-1.342-.798-2.758-1.64l-1.4-.835ZM7.91 15.285l-2.108 2.108c.063.08.16.13.27.13h3.153c-.44-.744-.88-1.49-1.315-2.238Z" clip-rule="evenodd"/>
  <path d="m5.729 11.499.56.982 1.018-1.018a980.5 980.5 0 0 0-.458-.79l-.003.004v-.005l-.008-.014-.006-.009.808.48.995-.994a5679.12 5679.12 0 0 1-3.347-1.992l-.123-.073a.257.257 0 0 1-.103-.319c.02-.048 1.511-2.711 2.178-3.784l.011-.015.013-.02v-.004l.01-.017.006-.01.006-.01a.259.259 0 0 1 .316-.096c.031.014 2.213 1.307 4.63 2.743l1-1A1411.636 1411.636 0 0 0 8.509 2.73l-.02-.012a1.701 1.701 0 0 0-.973-.318 1.63 1.63 0 0 0-1.405.78 172.823 172.823 0 0 0-2.245 3.887 1.631 1.631 0 0 0 .489 2.11v5.24l1.375-1.376V11.5Z"/>
  <path d="M8.356 8.496A1.374 1.374 0 1 1 9.73 7.12a1.376 1.376 0 0 1-1.375 1.375v.002Z"/>
</svg>