<svg xmlns="http://www.w3.org/2000/svg" class="infoIcon" width="28" height="28" viewBox="0 0 22 22">
  <path fill-rule="evenodd" d="M18.203 3 3.405 17.799 4.7 19.095l4.408-4.408h3.648l.002-.82-.263-.016a1.108 1.108 0 0 1-.689-.24 3.18 3.18 0 0 1-.586-1.036l2.67-2.67-.001.038c-.01.222.064.44.205.608a.778.778 0 0 0 .55.24.764.764 0 0 0 .554-.23.881.881 0 0 0 .21-.621l-.012-.347a.375.375 0 0 1 .145-.287.601.601 0 0 1 .43-.14.683.683 0 0 1 .564.221c.172.296.242.642.201.984v.04c-.655.23-1.29.514-1.9.852a2.65 2.65 0 0 0-.942.872 1.614 1.614 0 0 0-.218.846c-.017.451.14.892.438 1.226a1.485 1.485 0 0 0 1.124.479c.275.001.546-.06.796-.178.266-.151.518-.327.753-.524a.968.968 0 0 0 .188.397.842.842 0 0 0 .66.299c.498 0 .984-.335 1.488-1.024l.052-.068v-1.056l-.43.445a6.497 6.497 0 0 1-.454.432.357.357 0 0 1-.029-.107 8.012 8.012 0 0 1-.027-.939v-1.905a3.498 3.498 0 0 0-.128-1.18 1.4 1.4 0 0 0-.637-.723c-.41-.2-.863-.297-1.318-.28a2.478 2.478 0 0 0-.689.056L19.5 4.296 18.203 3Zm-1.212 10.104v-2.139c-.4.152-.79.326-1.17.521a2.03 2.03 0 0 0-.678.563 1.106 1.106 0 0 0-.204.644c-.009.269.084.53.258.731a.785.785 0 0 0 .594.292 2.16 2.16 0 0 0 1.2-.612Z" clip-rule="evenodd"/>
  <path d="M9.95 9.419 8.007 4.604h-.605l-3.23 7.823a3.83 3.83 0 0 1-.684 1.24 1.235 1.235 0 0 1-.58.191l-.23.042v.786h2.007l.847-.847a1.4 1.4 0 0 1-.419-.133c-.089-.074-.089-.123-.089-.145.026-.242.094-.478.202-.694l.534-1.29h2.034l.798-.798H5.78l1.56-3.754 1.444 3.561L9.95 9.42Z"/>
</svg>