<svg xmlns="http://www.w3.org/2000/svg" class="infoIcon" width="28" height="28" viewBox="0 0 22 22">
  <path fill-rule="evenodd" d="M18.203 2.4 1.833 18.77l1.297 1.296 3.257-3.257v.097a2.682 2.682 0 0 0 2.682 2.682h5.775a4.331 4.331 0 0 0 4.332-4.332V9.48a2.681 2.681 0 0 0-2.681-2.68h-.098L19.5 3.696 18.203 2.4ZM16.29 6.907l-.825.825v5.461a2.682 2.682 0 0 1-2.681 2.682H7.32l-.825.825h6.493a3.3 3.3 0 0 0 3.3-3.3V6.906Zm-7.73 7.73h4.224c.148 0 .292-.022.426-.064l-2.37-2.217-2.28 2.281Zm3.156-3.156 2.407 2.251a1.44 1.44 0 0 0 .104-.539V8.97l-2.51 2.51Z" clip-rule="evenodd"/>
  <path d="m10.935 7.835 1.44-1.44a1.03 1.03 0 1 0-1.44 1.439Z"/>
  <path d="M13.804 4.746c.037.037.071.076.104.116l.878-.878a2.682 2.682 0 0 0-2.003-.899H5.357a2.682 2.682 0 0 0-2.682 2.682v7.426a2.682 2.682 0 0 0 .899 2.003l5.504-5.504H9.07c-.471 0-.925.179-1.268.5l-3.785 3.54a1.443 1.443 0 0 1-.104-.539V5.767a1.444 1.444 0 0 1 1.444-1.443h7.426c.383 0 .75.152 1.02.422Z"/>
</svg>