<svg xmlns="http://www.w3.org/2000/svg" class="infoIcon" width="28" height="28" viewBox="0 0 22 22">
  <path fill-rule="evenodd" d="M18.203 2.4 1.833 18.77l1.297 1.296 1.47-1.47c.145.048.3.074.46.074h11.733a1.47 1.47 0 0 0 1.466-1.467V5.47c0-.16-.026-.315-.074-.46L19.5 3.697 18.203 2.4Zm-1.41 4.003-2 2h2v-2Zm-4.4 4.4-2 2h2v-2Zm-4.4 4.4-2 2h2v-2Zm4.4 2H9.459V14.27h2.934v2.933Zm4.4 0H13.86V14.27h2.933v2.933Zm0-4.4H13.86V9.87h2.933v2.934Zm-8.8-2.933v.907l2.373-2.373H9.46V5.47h2.934v.907l2.373-2.373H5.06A1.47 1.47 0 0 0 3.594 5.47v9.707l2.373-2.373H5.06V9.87h2.934Zm0-1.466H5.059V5.47h2.934v2.934Z" clip-rule="evenodd"/>
</svg>