<svg width="20" height="20" viewBox="0 0 19 19" fill="none" xmlns="http://www.w3.org/2000/svg">
<path fill-rule="evenodd" clip-rule="evenodd" d="M9.38272 5.18518H10.6173V0H9.38272V5.18518Z" fill="#A865C8"/>
<path fill-rule="evenodd" clip-rule="evenodd" d="M14.8148 10.6173H20V9.38272H14.8148V10.6173Z" fill="#A865C8"/>
<path fill-rule="evenodd" clip-rule="evenodd" d="M14.0867 6.78636L17.7968 3.07623L16.9239 2.20326L13.2137 5.91339L14.0867 6.78636Z" fill="#A865C8"/>
<path fill-rule="evenodd" clip-rule="evenodd" d="M5.9133 6.78628L6.78627 5.91331L3.07614 2.20318L2.20317 3.07616L5.9133 6.78628Z" fill="#A865C8"/>
<path fill-rule="evenodd" clip-rule="evenodd" d="M0 10.6173H5.18518V9.38272H0V10.6173Z" fill="#A865C8"/>
<path fill-rule="evenodd" clip-rule="evenodd" d="M9.38272 14.8148V20H10.6173V14.8148H9.38272Z" fill="#A865C8"/>
<path fill-rule="evenodd" clip-rule="evenodd" d="M3.07616 17.7969L6.78628 14.0868L5.91331 13.2138L2.20318 16.9239L3.07616 17.7969Z" fill="#A865C8"/>
<path fill-rule="evenodd" clip-rule="evenodd" d="M16.9239 17.7968L17.7968 16.9239L14.0867 13.2137L13.2137 14.0867L16.9239 17.7968Z" fill="#A865C8"/>
<path fill-rule="evenodd" clip-rule="evenodd" d="M10 14.1358C12.2841 14.1358 14.1358 12.2841 14.1358 10C14.1358 7.71586 12.2841 5.8642 10 5.8642C7.71586 5.8642 5.8642 7.71586 5.8642 10C5.8642 12.2841 7.71586 14.1358 10 14.1358ZM12.9012 10C12.9012 11.6023 11.6023 12.9012 10 12.9012C8.39769 12.9012 7.09877 11.6023 7.09877 10C7.09877 8.39769 8.39769 7.09877 10 7.09877C11.6023 7.09877 12.9012 8.39769 12.9012 10Z" fill="#A865C8"/>
</svg>
