<svg width="56" height="56" viewBox="0 0 56 56" fill="none" xmlns="http://www.w3.org/2000/svg">
<path d="M23.3333 21.3334C24.4379 21.3334 25.3333 22.2288 25.3333 23.3334V39.6667C25.3333 40.7713 24.4379 41.6667 23.3333 41.6667C22.2288 41.6667 21.3333 40.7713 21.3333 39.6667V23.3334C21.3333 22.2288 22.2288 21.3334 23.3333 21.3334Z" fill="black"/>
<path d="M34.6667 23.3334C34.6667 22.2288 33.7713 21.3334 32.6667 21.3334C31.5621 21.3334 30.6667 22.2288 30.6667 23.3334V39.6667C30.6667 40.7713 31.5621 41.6667 32.6667 41.6667C33.7713 41.6667 34.6667 40.7713 34.6667 39.6667V23.3334Z" fill="black"/>
<path fill-rule="evenodd" clip-rule="evenodd" d="M17 9C17 6.79086 18.7909 5 21 5H35C37.2091 5 39 6.79086 39 9V12H45C46.1046 12 47 12.8954 47 14C47 15.1046 46.1046 16 45 16H44V47C44 49.2091 42.2091 51 40 51H16C13.7909 51 12 49.2091 12 47V16H11C9.89543 16 9 15.1046 9 14C9 12.8954 9.89543 12 11 12H17V9ZM21 12H35V9H21V12ZM16 16V47H40V16H16Z" fill="black"/>
</svg>
